<svg width="622" height="621" viewBox="0 0 622 621" fill="none" xmlns="http://www.w3.org/2000/svg">
<path d="M622 310.5C622 481.984 482.761 621 311 621C139.239 621 0 481.984 0 310.5C0 139.016 139.239 0 311 0C482.761 0 622 139.016 622 310.5Z" fill="#EF810E" fill-opacity="0.22"/>
<path d="M174.938 473.512C174.938 473.512 147.725 473.512 147.725 446.344C147.725 419.175 174.938 337.669 311 337.669C447.063 337.669 474.275 419.175 474.275 446.344C474.275 473.512 447.063 473.512 447.063 473.512H174.938ZM311 310.5C332.652 310.5 353.416 301.913 368.726 286.627C384.036 271.342 392.638 250.611 392.638 228.994C392.638 207.377 384.036 186.646 368.726 171.36C353.416 156.075 332.652 147.487 311 147.487C289.348 147.487 268.584 156.075 253.274 171.36C237.964 186.646 229.363 207.377 229.363 228.994C229.363 250.611 237.964 271.342 253.274 286.627C268.584 301.913 289.348 310.5 311 310.5Z" fill="#EF810E"/>
<path d="M622 310.5C622 481.984 482.761 621 311 621C139.239 621 0 481.984 0 310.5C0 139.016 139.239 0 311 0C482.761 0 622 139.016 622 310.5Z" stroke="#EF810E"/>
<path d="M174.938 473.512C174.938 473.512 147.725 473.512 147.725 446.344C147.725 419.175 174.938 337.669 311 337.669C447.063 337.669 474.275 419.175 474.275 446.344C474.275 473.512 447.063 473.512 447.063 473.512H174.938ZM311 310.5C332.652 310.5 353.416 301.913 368.726 286.627C384.036 271.342 392.638 250.611 392.638 228.994C392.638 207.377 384.036 186.646 368.726 171.36C353.416 156.075 332.652 147.487 311 147.487C289.348 147.487 268.584 156.075 253.274 171.36C237.964 186.646 229.363 207.377 229.363 228.994C229.363 250.611 237.964 271.342 253.274 286.627C268.584 301.913 289.348 310.5 311 310.5Z" stroke="#EF810E"/>
</svg>
